# xmcd
#
# Track frame offsets:
#	150
#	25482
#	67477
#	98095
#	140385
#	154900
#	189115
#	209100
#	234092
#	274390
#
# Disc length: 4083 seconds
#
# Revision: 0
# Processed by: cddbd v1.5.2PL0 Copyright (c) Steve Scherf et al.
# Submitted via: EasyCDDAExtractor 16.0.9.1
#
DISCID=940ff10a
DTITLE=Klassik Träumereien - Vol.2 - 1.CD
DYEAR=1993
DGENRE=Klassik
TTITLE0=Svetlana Stanceva (Klavier), Mozart Festival Orchestra - Elvira Madiga
TTITLE0=n, Andante aus dem klavierkonzert Nr. 21 C-Dur KV 467
TTITLE1=Wiener Akademi - Le midi, Recitativo: Adagio aus der Sinfonie C-Dur, H
TTITLE1=oab.I/7
TTITLE2=Tatjana Nikolejewa - Appassionata-Sonate, Andante aus der Sonate für K
TTITLE2=lavier f-moll op.57
TTITLE3=English Chamber Orchestra - Aufforderung zum Tanz, op. 65
TTITLE4=Wiener Akademie - Rosamunde, Entreacte Nr. 3a aus der Schauspielmusik 
TTITLE4=zu 'Rosamunde, Fürstin von Zypern'
TTITLE5=Wiener Akademie - Rosamunde, Entreacte Nr. 3a aus der Schauspielmusik 
TTITLE5=zu 'Rosamunde, Fürstin von Zypern'
TTITLE6=London Philharmonic Orchestra - Dornröschen-Walzer, Walzer aus der Bal
TTITLE6=letsuite op.66a
TTITLE7=Sylvia Cápova - Regentropfen-Prélude, Prélude Des-Dur op.28/15
TTITLE8=Thomas Indermühle (Oboe), English Chamber Orchestra - Sinfonia concert
TTITLE8=ante, Andantino con variazioni aus Sinfonia concertante Es-Dur KV 297b
TTITLE9=Camerata Bern - Pavane and Chaconne, g-moll
EXTD=
EXTT0=
EXTT1=
EXTT2=
EXTT3=
EXTT4=
EXTT5=
EXTT6=
EXTT7=
EXTT8=
EXTT9=
PLAYORDER=
